# xmcd
#
# Track frame offsets: 
#        150
#        9753
#        17888
#        27620
#        43194
#        53669
#        69768
#        81599
#        94054
#        103169
#        115538
#
# Disc length: 1691 seconds
#
# Revision: 0
# Processed by: cddbd v1.5.1PL0 Copyright (c) Steve Scherf et al.
# Submitted via: ExactAudioCopy v0.95b2
#
DISCID=8406990b
DTITLE=TrueGrass - Live At The Rex
DYEAR=2005
DGENRE=Bluegrass
TTITLE0=Arab Bounce
TTITLE1=A Beautiful Life
TTITLE2=Fireball Mail
TTITLE3=The Moonlight Motor Inn
TTITLE4=Little Girl In Tennessee
TTITLE5=Once More
TTITLE6=Rock Hearts
TTITLE7=Somehow Tonight
TTITLE8=Sweet Little Miss Blue Eyes
TTITLE9=Tennessee
TTITLE10=Your Love Is Like A Flower
EXTD=
EXTT0=
EXTT1=
EXTT2=
EXTT3=
EXTT4=
EXTT5=
EXTT6=
EXTT7=
EXTT8=
EXTT9=
EXTT10=
PLAYORDER=
